HIERARCHY
ROOT Hips
{
	OFFSET 0.00000 0.00000 0.00000
	CHANNELS 6 Xposition Yposition Zposition Zrotation Yrotation Xrotation 
	JOINT LHipJoint
	{
		OFFSET 0 0 0
		CHANNELS 3 Zrotation Yrotation Xrotation
		JOINT LeftUpLeg
		{
			OFFSET 1.75344 -1.53157 0.77399
			CHANNELS 3 Zrotation Yrotation Xrotation
			JOINT LeftLeg
			{
				OFFSET 2.25415 -6.19323 0.00000
				CHANNELS 3 Zrotation Yrotation Xrotation
				JOINT LeftFoot
				{
					OFFSET 2.30342 -6.32861 0.00000
					CHANNELS 3 Zrotation Yrotation Xrotation
					JOINT LeftToeBase
					{
						OFFSET 0.10958 -0.30108 1.49206
						CHANNELS 3 Zrotation Yrotation Xrotation
						End Site
						{
							OFFSET 0.00000 -0.00000 0.77783
						}
					}
				}
			}
		}
	}
	JOINT RHipJoint
	{
		OFFSET 0 0 0
		CHANNELS 3 Zrotation Yrotation Xrotation
		JOINT RightUpLeg
		{
			OFFSET -1.81912 -1.53156 0.77399
			CHANNELS 3 Zrotation Yrotation Xrotation
			JOINT RightLeg
			{
				OFFSET -2.22882 -6.12365 0.00000
				CHANNELS 3 Zrotation Yrotation Xrotation
				JOINT RightFoot
				{
					OFFSET -2.21943 -6.09785 0.00000
					CHANNELS 3 Zrotation Yrotation Xrotation
					JOINT RightToeBase
					{
						OFFSET -0.18931 -0.52012 1.59379
						CHANNELS 3 Zrotation Yrotation Xrotation
						End Site
						{
							OFFSET -0.00000 -0.00000 0.84686
						}
					}
				}
			}
		}
	}
	JOINT LowerBack
	{
		OFFSET 0 0 0
		CHANNELS 3 Zrotation Yrotation Xrotation
		JOINT Spine
		{
			OFFSET -0.00200 1.66634 -0.14248
			CHANNELS 3 Zrotation Yrotation Xrotation
			JOINT Spine1
			{
				OFFSET -0.00875 1.64542 0.09514
				CHANNELS 3 Zrotation Yrotation Xrotation
				JOINT Neck
				{
					OFFSET 0 0 0
					CHANNELS 3 Zrotation Yrotation Xrotation
					JOINT Neck1
					{
						OFFSET 0.02257 1.59605 0.00839
						CHANNELS 3 Zrotation Yrotation Xrotation
						JOINT Head
						{
							OFFSET -0.10214 1.57530 -0.23335
							CHANNELS 3 Zrotation Yrotation Xrotation
							End Site
							{
								OFFSET -0.03588 1.60717 -0.08062
							}
						}
					}
				}
				JOINT LeftShoulder
				{
					OFFSET 0 0 0
					CHANNELS 3 Zrotation Yrotation Xrotation
					JOINT LeftArm
					{
						OFFSET 2.54983 1.10186 0.40078
						CHANNELS 3 Zrotation Yrotation Xrotation
						JOINT LeftForeArm
						{
							OFFSET 4.28840 -0.00000 0.00000
							CHANNELS 3 Zrotation Yrotation Xrotation
							JOINT LeftHand
							{
								OFFSET 3.06552 -0.00000 -0.00000
								CHANNELS 3 Zrotation Yrotation Xrotation
								JOINT LeftFingerBase
								{
									OFFSET 0 0 0
									CHANNELS 3 Zrotation Yrotation Xrotation
									JOINT LeftHandIndex1
									{
										OFFSET 0.75304 -0.00000 0.00000
										CHANNELS 3 Zrotation Yrotation Xrotation
										End Site
										{
											OFFSET 0.60712 -0.00000 0.00000
										}
									}
								}
								JOINT LThumb
								{
									OFFSET 0 0 0
									CHANNELS 3 Zrotation Yrotation Xrotation
									End Site
									{
										OFFSET 0.61639 -0.00000 0.61639
									}
								}
							}
						}
					}
				}
				JOINT RightShoulder
				{
					OFFSET 0 0 0
					CHANNELS 3 Zrotation Yrotation Xrotation
					JOINT RightArm
					{
						OFFSET -2.60909 1.35448 0.21802
						CHANNELS 3 Zrotation Yrotation Xrotation
						JOINT RightForeArm
						{
							OFFSET -4.52172 -0.00000 -0.00000
							CHANNELS 3 Zrotation Yrotation Xrotation
							JOINT RightHand
							{
								OFFSET -2.89140 -0.00000 0.00000
								CHANNELS 3 Zrotation Yrotation Xrotation
								JOINT RightFingerBase
								{
									OFFSET 0 0 0
									CHANNELS 3 Zrotation Yrotation Xrotation
									JOINT RightHandIndex1
									{
										OFFSET -0.68054 -0.00000 0.00000
										CHANNELS 3 Zrotation Yrotation Xrotation
										End Site
										{
											OFFSET -0.54867 -0.00000 0.00000
										}
									}
								}
								JOINT RThumb
								{
									OFFSET 0 0 0
									CHANNELS 3 Zrotation Yrotation Xrotation
									End Site
									{
										OFFSET -0.55705 -0.00000 0.55705
									}
								}
							}
						}
					}
				}
			}
		}
	}
}
MOTION
Frames: 15
Frame Time: .0083333
8.3582 15.0221 40.5393 0 0 0 0 0 0 -21 0 0 0 0 0 0 0 0 0 0 0 0 0 0 21 0 0 0 0 0 0 0 0 0 0 0 0 0 0 0 0 0 0 0 0 0 0 -16 0 0 21 0 0 11 0 0 0 -8 0 0 0 0 0 0 0 0 0 0 0 0 0 0 0 0 0 0 0 0 8 0 0 0 0 0 0 0 0 0 0 0 0 0 0 0 0 0
8.3582 15.0221 40.5393 -179.4040 -4.1686 178.1130 0.0000 0.0000 0.0000 -27.9995 -24.9027 -0.0474 3.1928 11.0009 32.2828 2.1440 1.2259 -28.1606 3.2757 -11.1285 -32.7143 0.0000 0.0000 0.0000 29.9102 15.4457 0.5824 -2.6557 -10.1156 29.3520 -1.9562 -21.9847 -41.4816 -1.4922 -7.7169 21.8574 4.1677 1.1409 8.7670 -1.9227 1.8329 -4.3022 -4.7093 0.5312 -9.3360 -5.3128 -1.5757 -9.3533 5.9354 -5.2882 28.9811 2.2618 -3.1932 11.1822 0.0000 -0.0000 0.0000 -84.3105 16.1507 33.1336 21.5592 -32.4753 -6.3475 -0.0000 -0.0000 13.2736 7.0162 -28.4619 -3.3567 -7.1250 0.0000 -0.0000 -13.7811 2.0433 13.6872 0.0000 -0.0000 0.0000 86.6392 -15.1735 51.3571 -18.4147 28.6849 -4.7466 0.0000 0.0000 11.2204 -21.6632 -60.3366 19.0421 7.1250 -0.0000 -0.0000 -169.1136 -2.5192 10.5929
8.3672 15.0314 40.5376 -179.4730 -3.9205 178.5570 0.0000 0.0000 0.0000 -27.9607 -25.3314 -0.2821 3.1698 10.9649 32.1617 2.0732 1.9314 -27.9677 3.6486 -11.6775 -34.6005 0.0000 0.0000 0.0000 29.8393 16.0434 0.3418 -2.6473 -10.1010 29.3045 -1.8636 -22.3939 -41.4562 -1.4842 -7.6970 21.7975 3.7897 1.2827 8.1395 -1.8107 1.9580 -4.2949 -4.3678 0.6305 -8.9565 -5.3175 -1.5994 -9.3741 5.7495 -5.2216 28.8583 2.2039 -3.1707 11.1297 -0.0000 -0.0000 0.0000 -84.5538 15.8969 32.9914 21.5846 -32.5043 -6.3612 -0.0000 -0.0000 13.0790 5.2528 -29.1018 -2.5603 -7.1250 0.0000 -0.0000 -14.8140 1.6062 14.9043 -0.0000 -0.0000 0.0000 86.4363 -14.7455 51.3900 -18.3246 28.5707 -4.7034 0.0000 0.0000 11.1917 -20.5615 -60.4240 18.0680 7.1250 -0.0000 -0.0000 -168.7503 -2.4579 10.9732
8.3748 15.0374 40.5335 -179.4570 -3.6226 178.8820 0.0000 0.0000 0.0000 -27.7904 -25.4205 -0.5498 3.1449 10.9259 32.0305 2.0029 2.4089 -27.6964 3.9863 -12.1422 -36.2369 0.0000 0.0000 0.0000 29.8138 16.4206 0.1291 -2.6394 -10.0871 29.2591 -1.8394 -22.5001 -41.4499 -1.4843 -7.6974 21.7986 3.5116 1.4160 7.5947 -1.6754 2.0945 -4.2662 -4.0620 0.7290 -8.6029 -5.3912 -1.6050 -9.4569 5.6719 -5.1541 28.7904 2.1970 -3.1443 11.1156 -0.0000 0.0000 0.0000 -84.7553 15.7749 32.9522 21.7479 -32.6909 -6.4491 -0.0000 -0.0000 12.8192 4.4412 -29.5944 -2.1967 -7.1250 0.0000 -0.0000 -15.2872 1.2104 15.5278 -0.0000 0.0000 0.0000 86.2285 -14.4675 51.2595 -18.1523 28.3517 -4.6213 0.0000 0.0000 11.5899 -19.4790 -60.0089 17.0323 7.1250 -0.0000 -0.0000 -168.4959 -1.9241 11.3448
8.3818 15.0469 40.5287 -179.5050 -3.2911 179.2920 0.0000 0.0000 0.0000 -27.6397 -25.4782 -0.9060 3.1136 10.8767 31.8652 1.9405 2.7983 -27.4445 4.2279 -12.4577 -37.3709 0.0000 0.0000 0.0000 29.6660 16.7662 -0.2047 -2.6325 -10.0749 29.2198 -1.8247 -22.4294 -41.3165 -1.5205 -7.7864 22.0672 3.0543 1.5916 7.0122 -1.4988 2.2690 -4.3216 -3.6166 0.8509 -8.3258 -5.4702 -1.6274 -9.4216 5.5432 -5.1187 28.7437 2.1691 -3.1472 11.0869 0.0000 0.0000 0.0000 -85.0208 15.8051 33.0571 21.9386 -32.9075 -6.5524 -0.0000 -0.0000 12.8549 5.2605 -29.6669 -2.6093 -7.1250 0.0000 -0.0000 -14.8229 1.0597 15.0622 0.0000 0.0000 0.0000 85.8948 -14.3431 51.2224 -18.0362 28.2035 -4.5664 0.0000 0.0000 11.7790 -18.3079 -59.5050 15.9130 7.1250 -0.0000 -0.0000 -168.2178 -1.3026 11.7646
8.3943 15.0646 40.5218 -179.6140 -2.8060 180.0200 0.0000 0.0000 0.0000 -27.3141 -25.4033 -1.7092 3.0862 10.8333 31.7199 1.8427 3.1689 -26.9419 4.4504 -12.7368 -38.3910 0.0000 0.0000 0.0000 29.3563 17.2786 -0.8685 -2.6251 -10.0619 29.1775 -1.7631 -22.3353 -40.9480 -1.4947 -7.7229 21.8755 2.2101 1.7817 6.0761 -1.1811 2.4236 -4.4572 -2.7889 0.9856 -7.9553 -5.3068 -1.5878 -9.3100 5.0029 -4.9060 28.6091 1.9727 -3.0861 10.9810 0.0000 0.0000 0.0000 -85.5581 15.7665 32.8468 22.0620 -33.0470 -6.6196 -0.0000 -0.0000 12.8345 7.2822 -29.8459 -3.6389 -7.1250 0.0000 -0.0000 -13.6759 0.6697 13.9190 0.0000 0.0000 0.0000 85.3113 -14.1341 51.4839 -17.9835 28.1360 -4.5414 0.0000 0.0000 11.8169 -16.7359 -59.2242 14.4857 7.1250 -0.0000 -0.0000 -12.2508 1.7696 -167.8497
8.4072 15.0804 40.5145 -179.7280 -2.3540 180.7290 0.0000 0.0000 0.0000 -27.0059 -25.3248 -2.5122 3.0659 10.8009 31.6114 1.8461 3.1489 -26.9566 4.4144 -12.6923 -38.2274 0.0000 0.0000 0.0000 29.0491 17.7899 -1.5030 -2.6147 -10.0435 29.1176 -1.6868 -22.1768 -40.4453 -1.4527 -7.6184 21.5610 1.2654 1.9188 5.2510 -0.8010 2.5146 -4.6410 -1.8402 1.0892 -7.7204 -4.9335 -1.5138 -9.1749 4.1572 -4.6002 28.4676 1.6422 -2.9951 10.8527 -0.0000 0.0000 0.0000 -86.2116 15.7943 32.4226 22.1518 -33.1481 -6.6686 -0.0000 -0.0000 12.6562 5.4732 -29.8586 -2.7311 -7.1250 0.0000 -0.0000 -14.7071 0.8529 14.9914 -0.0000 0.0000 0.0000 84.6454 -14.0726 51.7650 -17.9794 28.1307 -4.5395 0.0000 0.0000 12.1412 -15.4579 -58.9456 13.3277 7.1250 -0.0000 -0.0000 -12.6333 2.3228 -167.5797
8.4120 15.0813 40.5169 -179.7290 -2.1786 180.7800 0.0000 0.0000 0.0000 -26.9533 -25.2177 -2.6041 3.0592 10.7903 31.5758 1.8410 3.2282 -26.9576 4.4592 -12.7475 -38.4306 0.0000 0.0000 0.0000 29.0427 17.9092 -1.5046 -2.6001 -10.0178 29.0343 -1.6384 -22.1287 -40.1738 -1.4453 -7.5999 21.5054 1.1887 2.0011 5.2980 -0.7902 2.6159 -4.7110 -1.8015 1.1399 -7.8231 -4.7279 -1.4941 -8.9992 3.9718 -4.5529 28.3388 1.5486 -2.9725 10.7574 0.0000 0.0000 0.0000 -86.2124 15.8643 32.3918 22.2227 -33.2278 -6.7075 -0.0000 -0.0000 12.6012 5.7357 -29.8354 -2.8607 -7.1250 0.0000 -0.0000 -14.5571 0.8481 14.8291 0.0000 0.0000 0.0000 84.6353 -14.1030 51.5933 -17.9575 28.1027 -4.5292 0.0000 0.0000 12.6597 -14.1457 -58.6763 12.1501 7.1250 -0.0000 -0.0000 -13.0395 2.8704 -167.2915
8.4143 15.0832 40.5225 -179.5560 -2.1909 180.8920 0.0000 0.0000 0.0000 -26.7541 -25.5069 -2.6771 3.0665 10.8020 31.6149 1.8407 3.4124 -27.0401 4.4279 -12.7090 -38.2886 0.0000 0.0000 0.0000 29.1935 17.9650 -1.6023 -2.5811 -9.9839 28.9248 -1.6041 -22.2016 -40.0861 -1.4352 -7.5745 21.4289 1.3721 2.0238 5.2724 -0.7406 2.6627 -4.7752 -1.8578 1.1514 -7.8697 -4.8943 -1.4629 -8.8331 4.1879 -4.5252 28.1894 1.6617 -2.9519 10.6753 0.0000 -0.0000 0.0000 -86.1910 15.8832 32.4508 22.2766 -33.2882 -6.7370 -0.0000 -0.0000 12.5379 3.7966 -28.9323 -1.8388 -7.1250 0.0000 -0.0000 -15.6441 1.9079 15.7181 0.0000 -0.0000 0.0000 84.6259 -14.0591 51.4463 -17.8979 28.0262 -4.5011 0.0000 0.0000 12.9114 -13.4870 -58.2880 11.5319 7.1250 -0.0000 -0.0000 -13.2167 3.3755 -167.2345
8.4189 15.0813 40.5227 -179.4060 -2.4553 180.8930 0.0000 0.0000 0.0000 -26.6406 -25.8870 -2.5729 3.0809 10.8249 31.6916 1.8529 3.4381 -27.1357 4.3348 -12.5930 -37.8636 0.0000 0.0000 0.0000 29.4344 17.9907 -1.5013 -2.5638 -9.9531 28.8249 -1.6019 -22.4082 -40.2811 -1.4519 -7.6164 21.5549 1.5011 1.9550 5.2520 -0.6848 2.5854 -4.7822 -1.8617 1.1080 -7.8654 -5.0488 -1.4057 -8.7762 4.4469 -4.4746 28.1099 1.7891 -2.9140 10.6403 0.0000 -0.0000 0.0000 -86.1244 15.8897 32.5785 22.3293 -33.3472 -6.7660 -0.0000 -0.0000 12.3252 2.6085 -28.1040 -1.2295 -7.1250 0.0000 -0.0000 -16.3194 2.8054 16.1811 0.0000 -0.0000 0.0000 84.6679 -13.9930 51.1598 -17.7948 27.8936 -4.4528 0.0000 0.0000 13.3787 -12.8885 -57.6088 10.9357 7.1250 -0.0000 -0.0000 -13.3469 4.1323 -167.2933
8.4205 15.0822 40.5257 -179.3510 -2.6524 180.9050 0.0000 0.0000 0.0000 -26.4750 -25.7074 -2.7740 3.0905 10.8402 31.7427 1.8566 3.0452 -26.9819 4.2604 -12.4990 -37.5211 0.0000 0.0000 0.0000 29.5110 17.9920 -1.4835 -2.5538 -9.9350 28.7666 -1.5980 -22.6250 -40.4791 -1.4434 -7.5952 21.4910 1.3909 1.9084 5.2162 -0.5245 2.5255 -4.7571 -1.6227 1.0913 -7.8317 -5.1240 -1.3247 -8.9194 4.4067 -4.3269 28.2199 1.8038 -2.8562 10.7020 -0.0000 -0.0000 0.0000 -86.2850 15.8910 32.7024 22.4099 -33.4372 -6.8104 -0.0000 -0.0000 12.2129 2.8608 -27.8940 -1.3392 -7.1250 0.0000 -0.0000 -16.1742 2.9862 15.9691 -0.0000 -0.0000 0.0000 84.4508 -13.8953 50.9775 -17.7252 27.8039 -4.4203 0.0000 0.0000 13.7771 -12.2675 -56.9008 10.3236 7.1250 -0.0000 -0.0000 -13.4942 4.9227 -167.3501
8.4224 15.0860 40.5290 -179.4170 -2.6695 180.9790 0.0000 0.0000 0.0000 -26.4208 -25.4551 -3.0209 3.0900 10.8394 31.7400 1.8448 2.8341 -26.8073 4.2996 -12.5488 -37.7021 0.0000 0.0000 0.0000 29.3923 18.0006 -1.5882 -2.5530 -9.9337 28.7622 -1.6027 -22.6688 -40.5446 -1.4400 -7.5865 21.4650 1.0806 1.8896 5.0381 -0.3441 2.4852 -4.6814 -1.2467 1.0983 -7.6686 -5.1393 -1.1870 -9.1985 4.2166 -4.0524 28.3803 1.7686 -2.7464 10.7982 0.0000 0.0000 0.0000 -86.5371 15.7985 32.6860 22.4026 -33.4290 -6.8063 -0.0000 -0.0000 12.3766 4.0443 -28.0938 -1.9070 -7.1250 0.0000 -0.0000 -15.4930 2.6923 15.3271 0.0000 0.0000 0.0000 84.0359 -13.7176 51.1512 -17.6736 27.7372 -4.3963 0.0000 0.0000 13.9807 -11.9926 -56.4354 10.0375 7.1250 -0.0000 -0.0000 -13.5490 5.4129 -167.4248
8.4233 15.0854 40.5309 -179.5680 -2.7624 180.8960 0.0000 0.0000 0.0000 -26.6282 -25.4530 -2.9122 3.0877 10.8357 31.7278 1.8383 2.8768 -26.7809 4.3842 -12.6548 -38.0896 0.0000 0.0000 0.0000 29.2474 17.8781 -1.5556 -2.5579 -9.9424 28.7905 -1.5902 -22.7222 -40.5405 -1.4645 -7.6481 21.6503 0.9655 1.8746 5.1446 -0.3665 2.4577 -4.6548 -1.2063 1.0914 -7.7066 -5.1921 -1.0512 -9.1011 4.3610 -3.8483 28.1833 1.8572 -2.6324 10.6962 -0.0000 -0.0000 0.0000 -86.5430 15.7099 32.6292 22.2419 -33.2494 -6.7180 -0.0000 -0.0000 12.6853 4.9019 -28.5231 -2.3451 -7.1250 0.0000 -0.0000 -15.0043 2.1991 14.9452 -0.0000 -0.0000 0.0000 83.9001 -13.6410 51.2061 -17.6089 27.6535 -4.3662 0.0000 0.0000 14.3526 -11.1366 -56.0350 9.2728 7.1250 -0.0000 -0.0000 -13.8288 5.9750 -167.3014
8.4248 15.0920 40.5342 -179.5950 -2.5215 181.1780 0.0000 0.0000 0.0000 -26.5124 -25.4934 -3.2507 3.0813 10.8255 31.6935 1.8328 3.0230 -26.8084 4.4369 -12.7201 -38.3295 0.0000 0.0000 0.0000 29.0560 17.9279 -1.9827 -2.5631 -9.9517 28.8205 -1.5174 -22.6639 -40.1456 -1.3878 -7.4537 21.0667 1.1281 2.0335 5.1194 -0.4933 2.6626 -4.8706 -1.4575 1.1690 -7.9057 -5.0615 -0.9265 -8.8378 4.4484 -3.7070 27.9863 1.8859 -2.5435 10.5607 0.0000 0.0000 0.0000 -86.3664 15.7665 32.6097 22.0537 -33.0376 -6.6151 -0.0000 -0.0000 12.8777 5.1376 -29.1881 -2.5106 -7.1250 0.0000 -0.0000 -14.8818 1.5342 14.9972 0.0000 0.0000 0.0000 84.1151 -13.7397 50.5336 -17.4810 27.4875 -4.3070 0.0000 0.0000 15.3226 -9.1703 -54.8484 7.5191 7.1250 -0.0000 -0.0000 -14.4911 7.5084 -167.0961
8.4285 15.0839 40.5304 -179.5670 -3.0482 180.8370 0.0000 0.0000 0.0000 -26.5983 -25.4376 -2.8814 3.0807 10.8246 31.6906 1.8350 2.6462 -26.6568 4.4496 -12.7358 -38.3873 0.0000 0.0000 0.0000 29.2872 17.6838 -1.5816 -2.5680 -9.9605 28.8490 -1.6157 -22.7806 -40.7156 -1.4212 -7.5391 21.3226 1.1614 1.9167 5.4707 -0.4571 2.5233 -4.8352 -1.4355 1.1007 -8.0776 -4.8885 -0.7722 -8.7764 4.3747 -3.4865 27.9490 1.8566 -2.4304 10.5175 0.0000 0.0000 0.0000 -86.3638 15.7713 32.5752 21.8545 -32.8122 -6.5068 -0.0000 -0.0000 13.0682 5.3342 -29.6312 -2.6431 -7.1250 0.0000 -0.0000 -14.7801 1.0867 15.0083 0.0000 0.0000 0.0000 84.1618 -13.8351 50.3037 -17.4068 27.3909 -4.2728 0.0000 0.0000 15.6362 -9.2851 -54.8066 7.6100 7.1250 -0.0000 -0.0000 -14.4447 7.5219 -167.1443
